<svg width="40" height="40" viewBox="0 0 40 40" fill="none" xmlns="http://www.w3.org/2000/svg">
<circle cx="20" cy="20" r="20" fill="#1BBE72"/>
<g clip-path="url(#clip0_1594_54389)">
<path d="M24 10L29 15V29.008C28.9997 29.2712 28.895 29.5235 28.7088 29.7095C28.5226 29.8955 28.2702 30 28.007 30H11.993C11.7304 29.9982 11.479 29.8931 11.2932 29.7075C11.1074 29.5219 11.0021 29.2706 11 29.008V10.992C11 10.444 11.445 10 11.993 10H24ZM20 24C21.0609 24 22.0783 23.5786 22.8284 22.8284C23.5786 22.0783 24 21.0609 24 20C24 18.9391 23.5786 17.9217 22.8284 17.1716C22.0783 16.4214 21.0609 16 20 16H16V24H20ZM18 18H20C20.5304 18 21.0391 18.2107 21.4142 18.5858C21.7893 18.9609 22 19.4696 22 20C22 20.5304 21.7893 21.0391 21.4142 21.4142C21.0391 21.7893 20.5304 22 20 22H18V18Z" fill="white"/>
</g>
<defs>
<clipPath id="clip0_1594_54389">
<rect width="24" height="24" fill="white" transform="translate(8 8)"/>
</clipPath>
</defs>
</svg>
