<svg width="40" height="40" viewBox="0 0 40 40" fill="none" xmlns="http://www.w3.org/2000/svg">
<circle cx="20" cy="20" r="20" fill="#1BBE72"/>
<g clip-path="url(#clip0_1594_54414)">
<path d="M18 10V12H20V10H28.007C28.555 10 29 10.444 29 10.992V29.008C28.9979 29.2706 28.8926 29.5219 28.7068 29.7075C28.521 29.8931 28.2696 29.9982 28.007 30H11.993C11.7298 30 11.4774 29.8955 11.2912 29.7095C11.105 29.5235 11.0003 29.2712 11 29.008V10.992C11.0021 10.7294 11.1074 10.4781 11.2932 10.2925C11.479 10.1069 11.7304 10.0018 11.993 10H18ZM20 12V14H22V12H20ZM18 14V16H20V14H18ZM20 16V18H22V16H20ZM18 18V20H20V18H18ZM20 20V22H18V25H22V20H20Z" fill="white"/>
</g>
<defs>
<clipPath id="clip0_1594_54414">
<rect width="24" height="24" fill="white" transform="translate(8 8)"/>
</clipPath>
</defs>
</svg>
