<svg width="44" height="44" viewBox="0 0 44 44" fill="none" xmlns="http://www.w3.org/2000/svg">
<g filter="url(#filter0_b_286_17739)">
<circle cx="22" cy="22" r="20" transform="rotate(-180 22 22)" fill="#1BBE72"/>
<circle cx="22" cy="22" r="21" transform="rotate(-180 22 22)" stroke="url(#paint0_linear_286_17739)" stroke-width="2"/>
</g>
<g clip-path="url(#clip0_286_17739)">
<path d="M16.455 29L12 32.5V14C12 13.7348 12.1054 13.4804 12.2929 13.2929C12.4804 13.1054 12.7348 13 13 13H31C31.2652 13 31.5196 13.1054 31.7071 13.2929C31.8946 13.4804 32 13.7348 32 14V28C32 28.2652 31.8946 28.5196 31.7071 28.7071C31.5196 28.8946 31.2652 29 31 29H16.455ZM17 20V22H19V20H17ZM21 20V22H23V20H21ZM25 20V22H27V20H25Z" fill="white"/>
</g>
<defs>
<filter id="filter0_b_286_17739" x="-20" y="-20" width="84" height="84" filterUnits="userSpaceOnUse" color-interpolation-filters="sRGB">
<feFlood flood-opacity="0" result="BackgroundImageFix"/>
<feGaussianBlur in="BackgroundImageFix" stdDeviation="10"/>
<feComposite in2="SourceAlpha" operator="in" result="effect1_backgroundBlur_286_17739"/>
<feBlend mode="normal" in="SourceGraphic" in2="effect1_backgroundBlur_286_17739" result="shape"/>
</filter>
<linearGradient id="paint0_linear_286_17739" x1="32" y1="29.9167" x2="9.29167" y2="7.20833" gradientUnits="userSpaceOnUse">
<stop stop-color="white"/>
<stop offset="1" stop-color="white" stop-opacity="0.1"/>
</linearGradient>
<clipPath id="clip0_286_17739">
<rect width="24" height="24" fill="white" transform="translate(10 10)"/>
</clipPath>
</defs>
</svg>
