<svg width="20" height="20" viewBox="0 0 20 20" fill="none" xmlns="http://www.w3.org/2000/svg">
<g clip-path="url(#clip0_294_35155)">
<path d="M17.5 6.66699V17.4945C17.5008 17.6039 17.48 17.7124 17.4388 17.8138C17.3976 17.9152 17.3369 18.0075 17.2601 18.0855C17.1832 18.1634 17.0918 18.2254 16.991 18.268C16.8902 18.3106 16.7819 18.3329 16.6725 18.3337H3.3275C3.10818 18.3337 2.89783 18.2466 2.74266 18.0916C2.5875 17.9366 2.50022 17.7263 2.5 17.507V2.49366C2.5 2.04616 2.87417 1.66699 3.335 1.66699H12.4975L17.5 6.66699ZM15.8333 7.50033H11.6667V3.33366H4.16667V16.667H15.8333V7.50033ZM6.66667 5.83366H9.16667V7.50033H6.66667V5.83366ZM6.66667 9.16699H13.3333V10.8337H6.66667V9.16699ZM6.66667 12.5003H13.3333V14.167H6.66667V12.5003Z" fill="#1BBE72"/>
</g>
<defs>
<clipPath id="clip0_294_35155">
<rect width="20" height="20" fill="white"/>
</clipPath>
</defs>
</svg>
