<svg width="44" height="44" viewBox="0 0 44 44" fill="none" xmlns="http://www.w3.org/2000/svg">
<g filter="url(#filter0_b_286_17718)">
<circle cx="22" cy="22" r="20" transform="rotate(-180 22 22)" fill="#1BBE72"/>
<circle cx="22" cy="22" r="21" transform="rotate(-180 22 22)" stroke="url(#paint0_linear_286_17718)" stroke-width="2"/>
</g>
<g clip-path="url(#clip0_286_17718)">
<path d="M30 12C30.552 12 31 12.448 31 13V16.757L22.001 25.757L21.995 29.995L26.241 30.001L31 25.242V31C31 31.552 30.552 32 30 32H14C13.448 32 13 31.552 13 31V13C13 12.448 13.448 12 14 12H30ZM31.778 18.808L33.192 20.222L25.414 28L23.998 27.998L24 26.586L31.778 18.808ZM22 22H17V24H22V22ZM25 18H17V20H25V18Z" fill="white"/>
</g>
<defs>
<filter id="filter0_b_286_17718" x="-20" y="-20" width="84" height="84" filterUnits="userSpaceOnUse" color-interpolation-filters="sRGB">
<feFlood flood-opacity="0" result="BackgroundImageFix"/>
<feGaussianBlur in="BackgroundImageFix" stdDeviation="10"/>
<feComposite in2="SourceAlpha" operator="in" result="effect1_backgroundBlur_286_17718"/>
<feBlend mode="normal" in="SourceGraphic" in2="effect1_backgroundBlur_286_17718" result="shape"/>
</filter>
<linearGradient id="paint0_linear_286_17718" x1="32" y1="29.9167" x2="9.29167" y2="7.20833" gradientUnits="userSpaceOnUse">
<stop stop-color="white"/>
<stop offset="1" stop-color="white" stop-opacity="0.1"/>
</linearGradient>
<clipPath id="clip0_286_17718">
<rect width="24" height="24" fill="white" transform="translate(10 10)"/>
</clipPath>
</defs>
</svg>
