<svg width="40" height="40" viewBox="0 0 40 40" fill="none" xmlns="http://www.w3.org/2000/svg">
<circle cx="20" cy="20" r="20" fill="#1BBE72"/>
<g clip-path="url(#clip0_1594_54377)">
<path d="M25 11.0002H29C29.2652 11.0002 29.5196 11.1056 29.7071 11.2931C29.8947 11.4806 30 11.735 30 12.0002V28.0002C30 28.2654 29.8947 28.5198 29.7071 28.7073C29.5196 28.8949 29.2652 29.0002 29 29.0002H25V11.0002ZM10.859 10.8772L23.429 9.08222C23.5 9.07204 23.5723 9.07723 23.641 9.09744C23.7098 9.11765 23.7734 9.1524 23.8275 9.19935C23.8817 9.24629 23.9251 9.30433 23.9549 9.36952C23.9846 9.43472 24 9.50555 24 9.57722V30.4232C24 30.4948 23.9846 30.5655 23.9549 30.6306C23.9252 30.6957 23.8819 30.7537 23.8279 30.8007C23.7738 30.8476 23.7103 30.8824 23.6417 30.9026C23.5731 30.9229 23.5009 30.9282 23.43 30.9182L10.858 29.1232C10.6196 29.0893 10.4015 28.9704 10.2437 28.7886C10.0859 28.6067 9.99903 28.374 9.99902 28.1332V11.8672C9.99903 11.6264 10.0859 11.3937 10.2437 11.2119C10.4015 11.03 10.6196 10.9112 10.858 10.8772H10.859ZM13 16.0002V24.0002H15V22.0002H21V16.0002H13ZM15 18.0002H19V20.0002H15V18.0002Z" fill="white"/>
</g>
<defs>
<clipPath id="clip0_1594_54377">
<rect width="24" height="24" fill="white" transform="translate(8 8)"/>
</clipPath>
</defs>
</svg>
