<svg width="44" height="44" viewBox="0 0 44 44" fill="none" xmlns="http://www.w3.org/2000/svg">
<g filter="url(#filter0_b_286_17547)">
<circle cx="22" cy="22" r="20" transform="rotate(-180 22 22)" fill="#1BBE72"/>
<circle cx="22" cy="22" r="21" transform="rotate(-180 22 22)" stroke="url(#paint0_linear_286_17547)" stroke-width="2"/>
</g>
<g clip-path="url(#clip0_286_17547)">
<path d="M13 13.993C13 13.445 13.445 13 13.993 13H30.007C30.555 13 31 13.445 31 13.993V30.007C30.9997 30.2703 30.895 30.5227 30.7089 30.7089C30.5227 30.895 30.2703 30.9997 30.007 31H13.993C13.7297 30.9997 13.4773 30.895 13.2911 30.7089C13.105 30.5227 13.0003 30.2703 13 30.007V13.993ZM20.622 18.415C20.5618 18.3748 20.4919 18.3518 20.4196 18.3482C20.3473 18.3447 20.2755 18.3608 20.2116 18.3949C20.1478 18.4289 20.0944 18.4797 20.0572 18.5417C20.0199 18.6037 20.0001 18.6747 20 18.747V25.253C20.0001 25.3253 20.0199 25.3963 20.0572 25.4583C20.0944 25.5203 20.1478 25.5711 20.2116 25.6051C20.2755 25.6392 20.3473 25.6553 20.4196 25.6518C20.4919 25.6482 20.5618 25.6252 20.622 25.585L25.501 22.333C25.5559 22.2965 25.6009 22.247 25.632 22.1889C25.6631 22.1308 25.6794 22.0659 25.6794 22C25.6794 21.9341 25.6631 21.8692 25.632 21.8111C25.6009 21.753 25.5559 21.7035 25.501 21.667L20.621 18.415H20.622Z" fill="white"/>
</g>
<defs>
<filter id="filter0_b_286_17547" x="-20" y="-20" width="84" height="84" filterUnits="userSpaceOnUse" color-interpolation-filters="sRGB">
<feFlood flood-opacity="0" result="BackgroundImageFix"/>
<feGaussianBlur in="BackgroundImageFix" stdDeviation="10"/>
<feComposite in2="SourceAlpha" operator="in" result="effect1_backgroundBlur_286_17547"/>
<feBlend mode="normal" in="SourceGraphic" in2="effect1_backgroundBlur_286_17547" result="shape"/>
</filter>
<linearGradient id="paint0_linear_286_17547" x1="32" y1="29.9167" x2="9.29167" y2="7.20833" gradientUnits="userSpaceOnUse">
<stop stop-color="white"/>
<stop offset="1" stop-color="white" stop-opacity="0.1"/>
</linearGradient>
<clipPath id="clip0_286_17547">
<rect width="24" height="24" fill="white" transform="translate(10 10)"/>
</clipPath>
</defs>
</svg>
