<svg width="44" height="44" viewBox="0 0 44 44" fill="none" xmlns="http://www.w3.org/2000/svg">
<g filter="url(#filter0_b_286_17759)">
<circle cx="22" cy="22" r="20" transform="rotate(-180 22 22)" fill="#1BBE72"/>
<circle cx="22" cy="22" r="21" transform="rotate(-180 22 22)" stroke="url(#paint0_linear_286_17759)" stroke-width="2"/>
</g>
<g clip-path="url(#clip0_286_17759)">
<path d="M32 27.002C31.9996 28.3696 31.5321 29.696 30.675 30.7616C29.8179 31.8273 28.6226 32.5683 27.287 32.862L26.649 30.948C27.2332 30.8518 27.7888 30.6271 28.2758 30.2903C28.7627 29.9534 29.1689 29.5128 29.465 29H27C26.4696 29 25.9609 28.7893 25.5858 28.4142C25.2107 28.0391 25 27.5304 25 27V23C25 22.4696 25.2107 21.9609 25.5858 21.5858C25.9609 21.2107 26.4696 21 27 21H29.938C29.694 19.0669 28.7529 17.2893 27.2914 16.0007C25.8299 14.7121 23.9484 14.0011 22 14.0011C20.0516 14.0011 18.1701 14.7121 16.7086 16.0007C15.2471 17.2893 14.306 19.0669 14.062 21H17C17.5304 21 18.0391 21.2107 18.4142 21.5858C18.7893 21.9609 19 22.4696 19 23V27C19 27.5304 18.7893 28.0391 18.4142 28.4142C18.0391 28.7893 17.5304 29 17 29H14C13.4696 29 12.9609 28.7893 12.5858 28.4142C12.2107 28.0391 12 27.5304 12 27V22C12 16.477 16.477 12 22 12C27.523 12 32 16.477 32 22V27.002Z" fill="white"/>
</g>
<defs>
<filter id="filter0_b_286_17759" x="-20" y="-20" width="84" height="84" filterUnits="userSpaceOnUse" color-interpolation-filters="sRGB">
<feFlood flood-opacity="0" result="BackgroundImageFix"/>
<feGaussianBlur in="BackgroundImageFix" stdDeviation="10"/>
<feComposite in2="SourceAlpha" operator="in" result="effect1_backgroundBlur_286_17759"/>
<feBlend mode="normal" in="SourceGraphic" in2="effect1_backgroundBlur_286_17759" result="shape"/>
</filter>
<linearGradient id="paint0_linear_286_17759" x1="32" y1="29.9167" x2="9.29167" y2="7.20833" gradientUnits="userSpaceOnUse">
<stop stop-color="white"/>
<stop offset="1" stop-color="white" stop-opacity="0.1"/>
</linearGradient>
<clipPath id="clip0_286_17759">
<rect width="24" height="24" fill="white" transform="translate(10 10)"/>
</clipPath>
</defs>
</svg>
