<svg width="64" height="64" viewBox="0 0 64 64" fill="none" xmlns="http://www.w3.org/2000/svg">
<path d="M31.9997 5.3335C46.7197 5.3335 58.6663 17.2802 58.6663 32.0002C58.6663 46.7202 46.7197 58.6668 31.9997 58.6668C17.2797 58.6668 5.33301 46.7202 5.33301 32.0002C5.33301 17.2802 17.2797 5.3335 31.9997 5.3335ZM16.061 41.1095C19.9757 46.9495 25.853 50.6668 32.4263 50.6668C38.997 50.6668 44.877 46.9522 48.789 41.1095C44.351 36.9618 38.5009 34.6583 32.4263 34.6668C26.3509 34.6576 20.4997 36.9611 16.061 41.1095V41.1095ZM31.9997 29.3335C34.1214 29.3335 36.1562 28.4906 37.6565 26.9904C39.1568 25.4901 39.9997 23.4552 39.9997 21.3335C39.9997 19.2118 39.1568 17.1769 37.6565 15.6766C36.1562 14.1764 34.1214 13.3335 31.9997 13.3335C29.8779 13.3335 27.8431 14.1764 26.3428 15.6766C24.8425 17.1769 23.9997 19.2118 23.9997 21.3335C23.9997 23.4552 24.8425 25.4901 26.3428 26.9904C27.8431 28.4906 29.8779 29.3335 31.9997 29.3335V29.3335Z" fill="#DCDCDC"/>
</svg>
