<svg width="80" height="80" viewBox="0 0 80 80" fill="none" xmlns="http://www.w3.org/2000/svg">
<circle cx="40" cy="40" r="40" fill="#FF9431"/>
<g clip-path="url(#clip0_2977_81747)">
<path d="M40 60C28.954 60 20 51.046 20 40C20 28.954 28.954 20 40 20C51.046 20 60 28.954 60 40C60 51.046 51.046 60 40 60ZM40 56C44.2435 56 48.3131 54.3143 51.3137 51.3137C54.3143 48.3131 56 44.2435 56 40C56 35.7565 54.3143 31.6869 51.3137 28.6863C48.3131 25.6857 44.2435 24 40 24C35.7565 24 31.6869 25.6857 28.6863 28.6863C25.6857 31.6869 24 35.7565 24 40C24 44.2435 25.6857 48.3131 28.6863 51.3137C31.6869 54.3143 35.7565 56 40 56ZM38 46H42V50H38V46ZM38 30H42V42H38V30Z" fill="white"/>
</g>
<defs>
<clipPath id="clip0_2977_81747">
<rect width="48" height="48" fill="white" transform="translate(16 16)"/>
</clipPath>
</defs>
</svg>
