<svg width="80" height="80" viewBox="0 0 80 80" fill="none" xmlns="http://www.w3.org/2000/svg">
<circle cx="40" cy="40" r="40" fill="#979797"/>
<g clip-path="url(#clip0_1543_112564)">
<path d="M40.5 60C29.454 60 20.5 51.046 20.5 40C20.5 28.954 29.454 20 40.5 20C51.546 20 60.5 28.954 60.5 40C60.5 51.046 51.546 60 40.5 60ZM38.5 46V50H42.5V46H38.5ZM42.5 42.71C44.1073 42.2256 45.4872 41.1799 46.3883 39.7635C47.2894 38.3471 47.6518 36.6541 47.4095 34.9929C47.1671 33.3318 46.3362 31.8129 45.068 30.7129C43.7998 29.6129 42.1787 29.0051 40.5 29C38.8817 28.9999 37.3133 29.5603 36.0616 30.586C34.8098 31.6117 33.952 33.0393 33.634 34.626L37.558 35.412C37.6694 34.8549 37.9366 34.3408 38.3287 33.9296C38.7208 33.5185 39.2216 33.2271 39.7729 33.0894C40.3241 32.9517 40.9031 32.9734 41.4424 33.1519C41.9818 33.3305 42.4594 33.6585 42.8197 34.0978C43.1799 34.5372 43.408 35.0698 43.4774 35.6337C43.5467 36.1976 43.4546 36.7696 43.2115 37.2832C42.9685 37.7967 42.5847 38.2307 42.1047 38.5347C41.6246 38.8386 41.0682 39 40.5 39C39.9696 39 39.4609 39.2107 39.0858 39.5858C38.7107 39.9609 38.5 40.4696 38.5 41V44H42.5V42.71Z" fill="white"/>
</g>
<defs>
<clipPath id="clip0_1543_112564">
<rect width="48" height="48" fill="white" transform="translate(16.5 16)"/>
</clipPath>
</defs>
</svg>
