<svg width="40" height="40" viewBox="0 0 40 40" fill="none" xmlns="http://www.w3.org/2000/svg">
<circle cx="20" cy="20" r="20" fill="white"/>
<g clip-path="url(#clip0_1594_51875)">
<path d="M20 30C14.477 30 10 25.523 10 20C10 14.477 14.477 10 20 10C25.523 10 30 14.477 30 20C30 25.523 25.523 30 20 30ZM18.622 16.415C18.5618 16.3748 18.4919 16.3518 18.4196 16.3482C18.3473 16.3447 18.2755 16.3608 18.2116 16.3949C18.1478 16.4289 18.0944 16.4797 18.0572 16.5417C18.0199 16.6037 18.0001 16.6747 18 16.747V23.253C18.0001 23.3253 18.0199 23.3963 18.0572 23.4583C18.0944 23.5203 18.1478 23.5711 18.2116 23.6051C18.2755 23.6392 18.3473 23.6553 18.4196 23.6518C18.4919 23.6482 18.5618 23.6252 18.622 23.585L23.501 20.333C23.5559 20.2965 23.6009 20.247 23.632 20.1889C23.6631 20.1308 23.6794 20.0659 23.6794 20C23.6794 19.9341 23.6631 19.8692 23.632 19.8111C23.6009 19.753 23.5559 19.7035 23.501 19.667L18.621 16.415H18.622Z" fill="#1BBE72"/>
</g>
<defs>
<clipPath id="clip0_1594_51875">
<rect width="24" height="24" fill="white" transform="translate(8 8)"/>
</clipPath>
</defs>
</svg>
