<svg width="20" height="20" viewBox="0 0 20 20" fill="none" xmlns="http://www.w3.org/2000/svg">
<path d="M9.99996 18.3332C5.39746 18.3332 1.66663 14.6023 1.66663 9.99984C1.66663 5.39734 5.39746 1.6665 9.99996 1.6665C14.6025 1.6665 18.3333 5.39734 18.3333 9.99984C18.3333 14.6023 14.6025 18.3332 9.99996 18.3332ZM9.99996 16.6665C11.7681 16.6665 13.4638 15.9641 14.714 14.7139C15.9642 13.4636 16.6666 11.7679 16.6666 9.99984C16.6666 8.23173 15.9642 6.53604 14.714 5.28579C13.4638 4.03555 11.7681 3.33317 9.99996 3.33317C8.23185 3.33317 6.53616 4.03555 5.28591 5.28579C4.03567 6.53604 3.33329 8.23173 3.33329 9.99984C3.33329 11.7679 4.03567 13.4636 5.28591 14.7139C6.53616 15.9641 8.23185 16.6665 9.99996 16.6665ZM8.85163 7.01234L12.9175 9.72234C12.9632 9.75277 13.0007 9.79402 13.0266 9.84243C13.0525 9.89084 13.0661 9.94492 13.0661 9.99984C13.0661 10.0548 13.0525 10.1088 13.0266 10.1572C13.0007 10.2057 12.9632 10.2469 12.9175 10.2773L8.85079 12.9873C8.80065 13.0206 8.74245 13.0396 8.68235 13.0425C8.62226 13.0453 8.56252 13.0318 8.50947 13.0035C8.45641 12.9751 8.41202 12.9329 8.38101 12.8814C8.34999 12.8298 8.3335 12.7708 8.33329 12.7107V7.289C8.3334 7.22871 8.34987 7.16958 8.38093 7.11791C8.41198 7.06623 8.45648 7.02395 8.50966 6.99556C8.56285 6.96716 8.62275 6.95373 8.68296 6.95669C8.74318 6.95964 8.80147 6.97888 8.85163 7.01234Z" fill="#1BBE72"/>
</svg>
