<svg width="40" height="40" viewBox="0 0 40 40" fill="none" xmlns="http://www.w3.org/2000/svg">
<circle cx="20" cy="20" r="20" fill="white"/>
<g clip-path="url(#clip0_1594_51880)">
<path d="M14.455 27L10 30.5V12C10 11.7348 10.1054 11.4804 10.2929 11.2929C10.4804 11.1054 10.7348 11 11 11H29C29.2652 11 29.5196 11.1054 29.7071 11.2929C29.8946 11.4804 30 11.7348 30 12V26C30 26.2652 29.8946 26.5196 29.7071 26.7071C29.5196 26.8946 29.2652 27 29 27H14.455ZM19 22V24H21V22H19ZM16.567 16.813L18.529 17.206C18.5847 16.9274 18.7183 16.6704 18.9144 16.4648C19.1104 16.2592 19.3608 16.1135 19.6364 16.0447C19.912 15.9759 20.2015 15.9867 20.4712 16.076C20.7409 16.1652 20.9797 16.3292 21.1598 16.5489C21.34 16.7686 21.454 17.0349 21.4887 17.3168C21.5234 17.5988 21.4773 17.8848 21.3558 18.1416C21.2343 18.3984 21.0423 18.6154 20.8023 18.7673C20.5623 18.9193 20.2841 19 20 19H19V21H20C20.6628 20.9998 21.3119 20.8114 21.8718 20.4568C22.4317 20.1021 22.8794 19.5958 23.1628 18.9967C23.4462 18.3976 23.5537 17.7303 23.4727 17.0725C23.3917 16.4147 23.1257 15.7934 22.7055 15.2809C22.2852 14.7683 21.7281 14.3857 21.0989 14.1774C20.4698 13.9691 19.7944 13.9437 19.1513 14.1042C18.5083 14.2647 17.924 14.6045 17.4665 15.084C17.009 15.5635 16.6971 16.1631 16.567 16.813Z" fill="#1BBE72"/>
</g>
<defs>
<clipPath id="clip0_1594_51880">
<rect width="24" height="24" fill="white" transform="translate(8 8)"/>
</clipPath>
</defs>
</svg>
