<svg width="24" height="24" viewBox="0 0 24 24" fill="none" xmlns="http://www.w3.org/2000/svg">
<path fill-rule="evenodd" clip-rule="evenodd" d="M5.70285 8.5877C7.36923 10.9863 8.87475 13.4927 10.2095 16.0905C10.2332 16.1356 10.2684 16.1736 10.3116 16.2005C10.3548 16.2275 10.4044 16.2425 10.4552 16.244C10.5061 16.2456 10.5565 16.2335 10.6012 16.2091C10.6459 16.1848 10.6834 16.149 10.7097 16.1054C11.8438 14.1641 16.5584 6.49285 22.1991 2.34278C22.2412 2.31782 22.2716 2.27719 22.2836 2.22983C22.2957 2.18246 22.2885 2.13224 22.2635 2.09021C22.2386 2.04818 22.1979 2.01779 22.1506 2.00571C22.1032 1.99364 22.053 2.00087 22.011 2.02583C16.286 4.5961 11.5268 10.2418 10.5363 11.4353C10.5132 11.4651 10.4843 11.49 10.4513 11.5082C10.4183 11.5265 10.3819 11.5378 10.3443 11.5415C10.3068 11.5452 10.2688 11.5412 10.2329 11.5298C10.1969 11.5183 10.1637 11.4997 10.1352 11.4749C8.81035 10.342 7.4285 9.27753 5.99504 8.2856C5.95353 8.25684 5.90315 8.24376 5.8529 8.2487C5.80264 8.25364 5.75577 8.27628 5.72067 8.31258C5.68556 8.34888 5.66449 8.39647 5.66123 8.44687C5.65796 8.49726 5.67272 8.54717 5.70285 8.5877ZM19.1699 13.5353C19.5318 11.491 19.1256 9.38505 18.0293 7.62199C18.3661 7.23075 18.7127 6.85933 19.0693 6.4879C20.4741 8.53329 21.0599 11.0314 20.711 13.4881C20.3621 15.9448 19.1038 18.181 17.185 19.7543C15.2663 21.3277 12.8269 22.1235 10.3495 21.9844C7.87208 21.8453 5.53711 20.7814 3.80654 19.0032C2.07598 17.225 1.07589 14.8619 1.00415 12.3817C0.932398 9.90139 1.79422 7.48452 3.4191 5.60923C5.04397 3.73394 7.31354 2.53684 9.77878 2.25477C12.244 1.9727 14.7253 2.62621 16.7318 4.08601C16.3158 4.40296 15.9097 4.71991 15.5185 5.04181C13.7859 3.89792 11.6918 3.43453 9.63838 3.74066C7.58496 4.04678 5.71706 5.10084 4.3935 6.70034C3.06994 8.29985 2.38405 10.332 2.46759 12.4064C2.55114 14.4809 3.39822 16.4513 4.84613 17.9391C6.29403 19.427 8.24065 20.3275 10.312 20.4675C12.3834 20.6075 14.4335 19.9772 16.0684 18.6977C17.7034 17.4182 18.8079 15.5797 19.1699 13.5353Z" fill="#0B1237"/>
</svg>
