<svg width="80" height="80" viewBox="0 0 80 80" fill="none" xmlns="http://www.w3.org/2000/svg">
<circle cx="40" cy="40" r="40" fill="#1BBE72"/>
<path fill-rule="evenodd" clip-rule="evenodd" d="M30.0048 34.313C32.7821 38.3106 35.2913 42.488 37.5159 46.8177C37.5554 46.8928 37.6141 46.9561 37.6861 47.0011C37.758 47.046 37.8407 47.071 37.9255 47.0736C38.0103 47.0761 38.0943 47.056 38.1688 47.0154C38.2433 46.9748 38.3057 46.9151 38.3495 46.8425C40.2397 43.6069 48.0974 30.8216 57.4987 23.9048C57.5687 23.8632 57.6194 23.7955 57.6395 23.7165C57.6596 23.6376 57.6476 23.5539 57.606 23.4838C57.5644 23.4138 57.4967 23.3631 57.4177 23.343C57.3388 23.3229 57.2551 23.3349 57.185 23.3765C47.6435 27.6603 39.7114 37.0698 38.0607 39.059C38.0222 39.1087 37.9739 39.1501 37.9189 39.1805C37.8639 39.211 37.8032 39.2298 37.7406 39.236C37.678 39.2422 37.6148 39.2356 37.5549 39.2165C37.495 39.1974 37.4396 39.1663 37.3921 39.125C35.184 37.2369 32.8809 35.4627 30.4918 33.8095C30.4226 33.7616 30.3387 33.7398 30.2549 33.748C30.1711 33.7562 30.093 33.794 30.0345 33.8545C29.976 33.915 29.9409 33.9943 29.9355 34.0783C29.93 34.1623 29.9546 34.2455 30.0048 34.313ZM52.4499 42.5591C53.0531 39.1519 52.3761 35.6419 50.5489 32.7035C51.1102 32.0514 51.688 31.4324 52.2823 30.8133C54.6235 34.2223 55.6 38.3859 55.0184 42.4803C54.4369 46.5748 52.3397 50.3018 49.1418 52.924C45.9439 55.5463 41.8783 56.8727 37.7492 56.6409C33.6202 56.409 29.7286 54.6359 26.8443 51.6721C23.96 48.7084 22.2932 44.7701 22.1737 40.6363C22.0541 36.5025 23.4904 32.4744 26.1986 29.3489C28.9067 26.2234 32.6893 24.2282 36.798 23.7581C40.9068 23.288 45.0423 24.3772 48.3864 26.8102C47.6931 27.3384 47.0163 27.8667 46.3642 28.4032C43.4766 26.4967 39.9864 25.7244 36.564 26.2346C33.1417 26.7448 30.0285 28.5016 27.8226 31.1674C25.6166 33.8332 24.4735 37.2202 24.6127 40.6775C24.752 44.1349 26.1638 47.4189 28.577 49.8987C30.9901 52.3786 34.2345 53.8793 37.6868 54.1126C41.1391 54.346 44.5559 53.2955 47.2808 51.1629C50.0057 49.0304 51.8466 45.9662 52.4499 42.5591Z" fill="white"/>
</svg>
