<?xml version="1.0" encoding="UTF-8"?>
<svg id="Layer_2" data-name="Layer 2" xmlns="http://www.w3.org/2000/svg" viewBox="0 0 434 439">
  <defs>
    <style>
      .cls-1 {
        fill: #31ac39;
      }

      .cls-2 {
        fill: transparent;
      }
    </style>
  </defs>
  <g id="Layer_1-2" data-name="Layer 1">
    <g>
      <path class="cls-2" d="M171.74,0H434V439H0V0H154.82c-4.45,.57-8.9,1.09-13.34,1.72C105.95,6.78,75.13,21.98,50.24,47.92,11.61,88.18-3.14,136.62,6.48,191.92c6.18,35.5,22.81,65.89,49.76,89.57,50.39,44.27,107.81,54.73,169.25,29.14,53.22-22.17,85.14-64.17,95.57-121.69,6.63-36.56,.9-71.79-17.09-104.18C277.77,37.57,237.84,9.66,184.68,1.64,180.38,.99,176.05,.54,171.74,0Z"/>
      <path class="cls-2" d="M428.77,402.62c-40.72-41.2-81.6-82.57-122.19-123.63-11.35,11.48-22.98,23.24-33.91,34.3,40.68,41.15,81.56,82.5,122.25,123.66,11.07-11.24,22.6-22.92,33.85-34.33Z"/>
      <path class="cls-1" d="M171.74,0c4.31,.54,8.64,.99,12.94,1.64,53.16,8.02,93.09,35.93,119.29,83.12,17.98,32.39,23.71,67.62,17.09,104.18-10.42,57.52-42.35,99.52-95.57,121.69-61.44,25.59-118.86,15.13-169.25-29.14-26.95-23.68-43.59-54.07-49.76-89.57C-3.14,136.63,11.61,88.19,50.24,47.92,75.14,21.97,105.95,6.78,141.48,1.72c4.44-.63,8.89-1.15,13.34-1.72,5.64,0,11.28,0,16.92,0Zm-8.26,283.17c65.76,.05,119.56-54.25,119.9-121.01,.34-66.55-53.66-121.29-119.81-121.45-65.78-.16-119.38,53.94-119.82,120.93-.44,66.45,53.78,121.48,119.73,121.53Z"/>
      <path class="cls-1" d="M428.77,402.62c-11.25,11.41-22.77,23.09-33.85,34.33-40.7-41.17-81.58-82.52-122.25-123.66,10.93-11.06,22.56-22.82,33.91-34.3,40.58,41.06,81.47,82.43,122.19,123.63Z"/>
    </g>
  </g>
</svg>