<?xml version="1.0" encoding="UTF-8"?>
<svg id="Layer_2" data-name="Layer 2" xmlns="http://www.w3.org/2000/svg" viewBox="0 0 501.02 442.66">
  <defs>
    <style>
      .cls-1 {
        fill: #31ac39;
      }
    </style>
  </defs>
  <g id="Layer_1-2" data-name="Layer 1">
    <path class="cls-1" d="M.02,8.96C3.84,1.73,9.96-.02,17.84,0,147.66,.17,277.49,.14,407.31,.06c6.24,0,11.46,1.49,14.17,7.37,1.16,2.52,1.3,5.68,1.31,8.55,.06,79.92,.05,159.83,.05,239.75v6.04c3.89,.91,7.53,1.63,11.09,2.6,41.41,11.31,68.94,49.19,66.99,92.13-1.88,41.66-33.03,77.06-74.65,84.47-6.54,1.16-13.29,1.5-19.95,1.5-129.5,.08-259,.01-388.5,.19-7.88,.01-14-1.74-17.82-8.96C.02,292.12,.02,150.54,.02,8.96ZM347.27,417.15c-1.79-1.97-2.77-3.05-3.76-4.12-13.49-14.62-21.32-31.88-23.4-51.6-4.84-45.87,26.21-88.64,71.42-98.12,5.36-1.12,6.43-3.19,6.42-8.23-.16-74.2-.11-148.4-.11-222.6v-7H25.58V417.14c107.15,0,213.87,0,321.69,0Zm63.33,.28c36.34-.23,65.53-29.64,65.33-65.83-.2-36.23-29.85-65.74-65.8-65.48-36.1,.26-65.71,30.07-65.49,65.95,.22,36.12,29.95,65.58,65.96,65.36Z"/>
    <path class="cls-1" d="M255.94,233.91c-18.25,0-36.5-.04-54.74,.03-4.47,.02-8.42-1.09-11.38-4.54-6.09-7.12-2.69-17.74,6.44-20.1,1.86-.48,3.87-.53,5.8-.54,35.68-.03,71.36-.05,107.04,.04,2.7,.01,5.61,.36,8.04,1.44,5.47,2.43,8.03,8.04,6.88,13.71-1.12,5.51-6.14,9.75-12.37,9.89-9.12,.2-18.25,.07-27.37,.07-9.44,0-18.89,0-28.34,0Z"/>
    <path class="cls-1" d="M255.86,133.18c18.08,0,36.16-.02,54.24,.01,8.42,.02,14.06,4.9,14.21,12.17,.16,7.49-5.44,12.73-14.13,12.75-36.49,.07-72.98,.07-109.46,0-8.42-.02-13.92-5.12-13.94-12.43-.02-7.5,5.63-12.48,14.35-12.49,18.24-.03,36.48-.01,54.73-.01Z"/>
    <path class="cls-1" d="M255.37,309.46c-18.73,0-37.47,.06-56.2-.04-5.82-.03-10.95-4.26-12.15-9.52-1.26-5.54,1.32-11.17,6.63-13.88,1.54-.79,3.4-1.35,5.11-1.35,37.79-.08,75.58-.14,113.37,0,6.28,.02,11.05,4.54,11.97,10.2,.94,5.74-1.81,11.15-7.36,13.46-2.16,.9-4.74,1.09-7.13,1.1-18.08,.09-36.16,.05-54.24,.05,0-.01,0-.02,0-.02Z"/>
    <path class="cls-1" d="M128.38,208.75c5.37,0,10.73-.11,16.1,.03,7.83,.2,13.31,5.48,13.29,12.6-.02,7.11-5.53,12.4-13.39,12.5-10.73,.14-21.46,.12-32.19,.01-7.92-.09-13.45-5.27-13.54-12.35-.09-7.31,5.51-12.61,13.64-12.76,5.36-.12,10.73-.04,16.09-.03Z"/>
    <path class="cls-1" d="M128.58,133.2c5.54,0,11.09-.11,16.63,.02,6.9,.16,12.29,5.34,12.54,11.82,.27,6.93-4.62,12.71-11.83,12.91-11.89,.32-23.8,.31-35.69-.04-6.91-.2-11.75-5.97-11.58-12.65,.17-6.55,5.47-11.85,12.33-12.03,5.86-.15,11.74-.03,17.6-.03Z"/>
    <path class="cls-1" d="M128.58,309.47c-5.71,0-11.41,.08-17.12-.02-7.2-.14-12.65-5.34-12.82-12.06-.17-6.84,4.85-12.53,12.07-12.71,11.73-.29,23.48-.3,35.2,.03,7.19,.2,12.1,6,11.83,12.91-.25,6.48-5.65,11.58-12.54,11.84-.33,.01-.65,.01-.98,.01h-15.64Z"/>
    <path class="cls-1" d="M407.4,364.78c5.64-9.31,11.01-18.18,16.38-27.04,2.62-4.32,5.13-8.7,7.87-12.94,4.12-6.38,11.37-8.33,17.34-4.83,6.16,3.61,7.98,11.17,3.95,17.91-10.36,17.34-20.79,34.63-31.36,51.84-4.94,8.04-13.11,9.22-20.33,3-9.63-8.3-19.14-16.75-28.59-25.26-5.85-5.27-6.57-13.01-1.95-18.27,4.73-5.39,12.62-5.52,18.74-.21,5.89,5.1,11.7,10.29,17.95,15.8Z"/>
  </g>
</svg>