<?xml version="1.0" encoding="UTF-8"?>
<svg id="Layer_2" data-name="Layer 2" xmlns="http://www.w3.org/2000/svg" viewBox="0 0 167.47 58.32">
  <defs>
    <style>
      .cls-1 {
        fill: #31ac39;
      }
    </style>
  </defs>
  <g id="text">
    <g>
      <path class="cls-1" d="M85.64,58.32c-14.26,0-28.83-4.14-28.83-20.95h10.56c0,9.3,11.02,11.02,18.27,11.02,7.71,0,11.72-3.67,11.72-7.04,0-4.85-9.02-6.41-14.26-7.51-11.33-2.34-23.98-4.77-23.98-17.35S70.45,0,83.4,0c13.72,0,25.21,6.33,25.21,22.36h-10.56c0-8.52-7.94-12.43-14.65-12.43-5.94,0-13.8,1.41-13.8,6.1s8.09,6.1,14.34,7.35c12.1,2.35,25.44,4.69,25.44,17.51,0,10.55-7.48,17.43-23.75,17.43Z"/>
      <path class="cls-1" d="M142.11,58.32c-15.03,0-26.29-11.18-26.29-28.53,0-21.11,11.33-29.79,26.29-29.79,11.1,0,23.67,5.47,25.37,19.7h-10.64c-1.62-6.57-8.56-9.77-14.73-9.77-7.94,0-15.8,5.55-15.8,19.86,0,10.94,7.86,18.61,15.8,18.61,9.41,0,13.19-6.18,14.42-8.91h10.72c-1.54,7.04-7.25,18.84-25.13,18.84Z"/>
      <path class="cls-1" d="M24.02,1.2H.01V10.82H24.02c13.8,0,17.75,9.29,17.75,18.29s-5.47,18.36-17.75,18.36H.01v9.62H24.02c20.05,0,27.45-12.2,27.45-27.98S44.07,1.2,24.02,1.2ZM0,27H10.15v11.32H0v-11.32Zm30.44-7v18.33h-10.14V20h10.14Z"/>
    </g>
  </g>
</svg>