<svg width="40" height="40" viewBox="0 0 40 40" fill="none" xmlns="http://www.w3.org/2000/svg">
<path fill-rule="evenodd" clip-rule="evenodd" d="M20 0C8.96186 0 0 8.96186 0 20C0 31.0381 8.96186 40 20 40C31.0381 40 40 31.0381 40 20C40 8.96186 31.0381 0 20 0ZM20 2.7907C29.4977 2.7907 37.2093 10.5023 37.2093 20C37.2093 29.4977 29.4977 37.2093 20 37.2093C10.5023 37.2093 2.7907 29.4977 2.7907 20C2.7907 10.5023 10.5023 2.7907 20 2.7907Z" fill="#7ABD9E"/>
<path fill-rule="evenodd" clip-rule="evenodd" d="M5.24831 31.6149C4.76087 32.1489 4.76087 32.9675 5.24831 33.5014C8.90598 37.494 14.1637 40.0001 19.9999 40.0001C25.8362 40.0001 31.0939 37.494 34.7516 33.5014C35.239 32.9675 35.239 32.1489 34.7516 31.6149C31.0939 27.6224 25.8362 25.1163 19.9999 25.1163C14.1637 25.1163 8.90598 27.6224 5.24831 31.6149Z" fill="#7ABD9E"/>
<path d="M20 23.2558C24.3669 23.2558 27.907 19.7157 27.907 15.3488C27.907 10.9819 24.3669 7.44183 20 7.44183C15.6331 7.44183 12.0931 10.9819 12.0931 15.3488C12.0931 19.7157 15.6331 23.2558 20 23.2558Z" fill="#7ABD9E"/>
</svg>
