<svg width="80" height="80" viewBox="0 0 80 80" fill="none" xmlns="http://www.w3.org/2000/svg">
<path fill-rule="evenodd" clip-rule="evenodd" d="M40 0C17.9237 0 0 17.9237 0 40C0 62.0763 17.9237 80 40 80C62.0763 80 80 62.0763 80 40C80 17.9237 62.0763 0 40 0ZM40 5.5814C58.9953 5.5814 74.4186 21.0047 74.4186 40C74.4186 58.9953 58.9953 74.4186 40 74.4186C21.0047 74.4186 5.5814 58.9953 5.5814 40C5.5814 21.0047 21.0047 5.5814 40 5.5814Z" fill="#7ABD9E"/>
<path fill-rule="evenodd" clip-rule="evenodd" d="M10.4968 63.2299C9.5219 64.2978 9.5219 65.935 10.4968 67.0029C17.8121 74.988 28.3275 80.0001 40 80.0001C51.6726 80.0001 62.188 74.988 69.5033 67.0029C70.4782 65.935 70.4782 64.2978 69.5033 63.2299C62.188 55.2448 51.6726 50.2327 40 50.2327C28.3275 50.2327 17.8121 55.2448 10.4968 63.2299Z" fill="#7ABD9E"/>
<path d="M40 46.5117C48.7338 46.5117 55.8139 39.4315 55.8139 30.6977C55.8139 21.9639 48.7338 14.8838 40 14.8838C31.2662 14.8838 24.186 21.9639 24.186 30.6977C24.186 39.4315 31.2662 46.5117 40 46.5117Z" fill="#7ABD9E"/>
</svg>
