<svg width="81" height="28" viewBox="0 0 81 28" fill="none" xmlns="http://www.w3.org/2000/svg">
<path d="M41.1497 28C34.2928 28 27.2963 26.01 27.2963 17.9451H32.3712C32.3712 22.4052 37.6645 23.2344 41.1497 23.2344C44.8532 23.2344 46.7749 21.4888 46.7749 19.8566C46.7749 17.5262 42.4075 16.7756 39.9268 16.2519C34.4763 15.1259 28.4056 13.9651 28.4056 7.91647C28.4056 2.13841 33.8474 0 40.0753 0C46.6613 0 52.1817 3.03741 52.1817 10.7357H47.1068C47.1068 6.64215 43.2897 4.76559 40.0753 4.76559C37.219 4.76559 33.4456 5.44639 33.4456 7.69826C33.4456 9.95013 37.3326 10.6222 40.3286 11.1895C46.146 12.3155 52.5573 13.4414 52.5573 19.5948C52.5573 24.7269 48.9673 28 41.1497 28Z" fill="#2AD03D"/>
<path d="M68.2713 28C61.0563 28 55.6495 22.6322 55.6495 14.2968C55.6495 4.16335 61.0913 0 68.2713 0C73.6083 0 79.6265 2.61845 80.5 9.46134H75.3465C74.5691 6.31047 71.2411 4.76559 68.2713 4.76559C64.4629 4.76559 60.6807 7.43641 60.6807 14.2968C60.6807 19.5337 64.4629 23.2344 68.2713 23.2344C69.7232 23.3049 71.1624 22.9339 72.399 22.1704C73.6356 21.4069 74.6115 20.2867 75.198 18.9576H80.3515C79.6091 22.3703 76.8663 28 68.2713 28Z" fill="#2AD03D"/>
<path d="M11.5474 0.610962H0.0524067V5.22818H11.5911C18.2208 5.22818 20.1163 9.68827 20.1163 14.0087C20.1163 18.3292 17.4958 22.8242 11.5911 22.8242H0.0524067V27.4414H11.5911C21.1994 27.4414 24.7807 21.5848 24.7807 14.0087C24.7807 6.43266 21.1819 0.610962 11.5474 0.610962ZM0 12.9963H4.88276V18.399H0V12.9963ZM14.6308 9.67082V18.399H9.75678V9.67082H14.6308Z" fill="#2AD03D"/>
</svg>
